<svg xmlns="http://www.w3.org/2000/svg" width="30" height="30" viewBox="0 0 30 30">
  <g id="Wallet_Icon" data-name="Wallet Icon" transform="translate(-1259 -299)">
    <path id="Path_38315" data-name="Path 38315" d="M0,0H30V30H0Z" transform="translate(1259 299)" fill="none"/>
    <g id="wallet" transform="translate(1260.058 300.152)">
      <path id="Path_42119" data-name="Path 42119" d="M5.8,6.308H22.554a4.593,4.593,0,0,1,.585.037,3.456,3.456,0,0,0-4.058-2.909L5.3,5.788H5.288a3.456,3.456,0,0,0-2.15,1.368A4.584,4.584,0,0,1,5.8,6.308Z" transform="translate(-0.236 0)" fill="#060707"/>
      <path id="Path_42120" data-name="Path 42120" d="M22.319,9H5.566a3.354,3.354,0,0,0-3.351,3.351V22.4a3.354,3.354,0,0,0,3.351,3.351H22.319A3.354,3.354,0,0,0,25.669,22.4V12.351A3.354,3.354,0,0,0,22.319,9ZM19.832,19.052a1.675,1.675,0,1,1,1.675-1.675A1.675,1.675,0,0,1,19.832,19.052Z" transform="translate(0 -1.436)" fill="#060707"/>
      <path id="Path_42121" data-name="Path 42121" d="M2.25,15.157V9.948A3.429,3.429,0,0,1,5.059,6.5a22.709,22.709,0,0,1,3.683-.348s1.2.838.209.838a.648.648,0,1,0,0,1.283c.969,0,0,1.23,0,1.23l-3.9,4.424Z" transform="translate(-0.009 -0.709)" fill="#060707"/>
    </g>
  </g>
</svg>
